<svg xmlns="http://www.w3.org/2000/svg" width="44" height="33.03" viewBox="0 0 44 33.03">
  <g id="svgexport-6_2_" data-name="svgexport-6 (2)" transform="translate(-2 -7.97)">
    <path id="Path_16658" data-name="Path 16658" d="M11.6,9.9a10.628,10.628,0,0,1,7.6.7,4.412,4.412,0,0,0-5.7-2.3,4.944,4.944,0,0,0-1.9,1.6Z" fill="#b79b74"/>
    <path id="Path_16659" data-name="Path 16659" d="M28.8,10.6a10.388,10.388,0,0,1,4.6-1.1,15.438,15.438,0,0,1,3,.4A4.55,4.55,0,0,0,32.7,8a4.136,4.136,0,0,0-3.9,2.6Z" fill="#b79b74"/>
    <path id="Path_16660" data-name="Path 16660" d="M28.8,20A12.348,12.348,0,0,1,42,19.8l-3.1-6.2a.781.781,0,0,0-.4-.4s-1.6-1.6-5.2-1.6a6.611,6.611,0,0,0-4.9,1.7c-.2.1-.3.4-.4.6L27.5,17H26.4a3.508,3.508,0,0,0-.8-.5,4.154,4.154,0,0,0-3.1,0,2.177,2.177,0,0,0-.8.5H20.6L20,13.8a1.007,1.007,0,0,0-.1-.3,7.628,7.628,0,0,0-5.2-1.9c-1.7,0-2.6-.1-5.2,1.6a.781.781,0,0,0-.4.4l-3,6.2a12.382,12.382,0,0,1,13.1.2c.7.5,4.8,5.5,4.8,5.5S28,20.5,28.8,20Z" fill="#b79b74"/>
    <path id="Path_16661" data-name="Path 16661" d="M12.5,20A10.5,10.5,0,1,0,23,30.5,10.5,10.5,0,0,0,12.5,20Zm0,17.4a7,7,0,1,1,7-7A7.02,7.02,0,0,1,12.5,37.4Z" fill="#725145"/>
    <path id="Path_16662" data-name="Path 16662" d="M35.5,20A10.5,10.5,0,1,0,46,30.5,10.5,10.5,0,0,0,35.5,20Zm0,17.4a7,7,0,1,1,7-7A7.02,7.02,0,0,1,35.5,37.4Z" fill="#725145"/>
  </g>
</svg>
